<?xml version="1.0" encoding="utf-8"?>
<!-- Generator: Adobe Illustrator 25.0.0, SVG Export Plug-In . SVG Version: 6.00 Build 0)  -->
<svg version="1.1" id="Layer_1" xmlns="http://www.w3.org/2000/svg" xmlns:xlink="http://www.w3.org/1999/xlink" x="0px" y="0px"
	 viewBox="0 0 85.04 49.61" style="enable-background:new 0 0 85.04 49.61;" xml:space="preserve">
<style type="text/css">
	.st0{opacity:0.33;fill:#582C84;}
	.st1{fill:#582C84;}
	.st2{fill:#FFFFFF;}
	.st3{font-family:'CrimsonText-Bold';}
	.st4{font-size:24px;}
</style>
<path class="st0" d="M25.6,49.36L1.55,25.3c-0.28-0.28-0.28-0.73,0-1L25.6,0.25c0.28-0.28,0.73-0.28,1,0L50.66,24.3
	c0.28,0.28,0.28,0.73,0,1L26.61,49.36C26.33,49.63,25.88,49.63,25.6,49.36z"/>
<path class="st0" d="M28.63,49.36L4.58,25.3c-0.28-0.28-0.28-0.73,0-1L28.63,0.25c0.28-0.28,0.73-0.28,1,0L53.69,24.3
	c0.28,0.28,0.28,0.73,0,1L29.63,49.36C29.36,49.63,28.91,49.63,28.63,49.36z"/>
<path class="st0" d="M31.82,49.36L7.77,25.3c-0.28-0.28-0.28-0.73,0-1L31.82,0.25c0.28-0.28,0.73-0.28,1,0L56.88,24.3
	c0.28,0.28,0.28,0.73,0,1L32.82,49.36C32.55,49.63,32.1,49.63,31.82,49.36z"/>
<path class="st0" d="M34.85,49.36L10.8,25.3c-0.28-0.28-0.28-0.73,0-1L34.85,0.25c0.28-0.28,0.73-0.28,1,0L59.9,24.3
	c0.28,0.28,0.28,0.73,0,1L35.85,49.36C35.57,49.63,35.13,49.63,34.85,49.36z"/>
<path class="st0" d="M48.99,49.36L24.93,25.3c-0.28-0.28-0.28-0.73,0-1L48.99,0.25c0.28-0.28,0.73-0.28,1,0L74.04,24.3
	c0.28,0.28,0.28,0.73,0,1L49.99,49.36C49.71,49.63,49.26,49.63,48.99,49.36z"/>
<path class="st0" d="M52.14,49.36L28.08,25.3c-0.28-0.28-0.28-0.73,0-1L52.14,0.25c0.28-0.28,0.73-0.28,1,0L77.19,24.3
	c0.28,0.28,0.28,0.73,0,1L53.14,49.36C52.86,49.63,52.41,49.63,52.14,49.36z"/>
<path class="st0" d="M55.29,49.36L31.23,25.3c-0.28-0.28-0.28-0.73,0-1L55.29,0.25c0.28-0.28,0.73-0.28,1,0L80.34,24.3
	c0.28,0.28,0.28,0.73,0,1L56.29,49.36C56.01,49.63,55.56,49.63,55.29,49.36z"/>
<path class="st0" d="M58.43,49.36L34.38,25.3c-0.28-0.28-0.28-0.73,0-1L58.43,0.25c0.28-0.28,0.73-0.28,1,0L83.49,24.3
	c0.28,0.28,0.28,0.73,0,1L59.44,49.36C59.16,49.63,58.71,49.63,58.43,49.36z"/>
<path class="st1" d="M42.04,49.36L17.98,25.3c-0.28-0.28-0.28-0.73,0-1L42.04,0.25c0.28-0.28,0.73-0.28,1,0L67.09,24.3
	c0.28,0.28,0.28,0.73,0,1L43.04,49.36C42.76,49.63,42.31,49.63,42.04,49.36z"/>
<text transform="matrix(1 0 0 1 35.3501 30.4417)" class="st2 st3 st4">R</text>
</svg>
